<svg id="Главный_логотип" data-name="Главный логотип" xmlns="http://www.w3.org/2000/svg" viewBox="0 0 512 512"><defs><style>.cls-2{fill:#00b6a4;}.cls-3{fill:#005b60;}.cls-4{fill:#fbb255;}</style></defs><g id="Логотип"><path class="cls-2" d="M377.76,340.63a167.44,167.44,0,0,0-19.42-41.25,168.45,168.45,0,0,1-204.68-64.26l-2.29.95a33.71,33.71,0,0,0-20.57,31v74.13A51.79,51.79,0,0,0,182.59,393H329.41a51.77,51.77,0,0,0,47-30A31,31,0,0,0,377.76,340.63Z"/><path class="cls-3" d="M153.66,235.12a168.45,168.45,0,0,0,204.68,64.26,168.41,168.41,0,0,0-204.68-64.26Z"/><path class="cls-4" d="M381.2,194.36a51.79,51.79,0,0,0-51.79-51.79H182.59a51.75,51.75,0,0,0-44.86,25.92,34.54,34.54,0,0,0-2.58,28.21,167.57,167.57,0,0,0,18.51,38.42,168.41,168.41,0,0,1,204.68,64.26q2.75-1.12,5.45-2.34a29.48,29.48,0,0,0,17.41-26.86Z"/><path class="cls-4" d="M329.44,122.49c-3.53-11.07-14.7-18.8-27.17-18.8H210.55c-11.75,0-23.06,7.71-26.9,18.34a7.69,7.69,0,0,0,1,7.15,9.45,9.45,0,0,0,7.8,3.88H193a9,9,0,0,0,8.47-5.52,10.64,10.64,0,0,1,9.08-6.22h91.72c2.82,0,7.58,1.59,9.14,6a9.15,9.15,0,0,0,8.79,5.76h.3a9.62,9.62,0,0,0,7.78-3.78A7.55,7.55,0,0,0,329.44,122.49Z"/></g></svg>